<svg xmlns="http://www.w3.org/2000/svg" viewBox="0 0 512 512">
  <rect width="512" height="512" rx="120" fill="#0052D4"/>
  
  <path fill="white" d="M379.2 260.7c-3.1-23.7-9.5-46.4-18.4-67.6l42.6-46.6c6-6.6 5.8-16.7-.5-23.1l-34.9-34.9c-6.3-6.3-16.4-6.6-23.1-.5L298.3 130.5c-21.2-9-44-15.3-67.6-18.4V48c0-8.8-7.2-16-16-16h-49.4c-8.8 0-16 7.2-16 16v64.1c-23.7 3.1-46.4 9.5-67.6 18.4l-46.6-42.6c-6.6-6-16.7-5.8-23.1 .5L10.5 123.4c-6.3 6.3-6.6 16.4-.5 23.1l42.6 46.6c-9 21.2-15.3 44-18.4 67.6H-32c-8.8 0-16 7.2-16 16v49.4c0 8.8 7.2 16 16 16H34.1c3.1 23.7 9.5 46.4 18.4 67.6l-42.6 46.6c-6 6.6-5.8 16.7 .5 23.1l34.9 34.9c6.3 6.3 16.4 6.6 23.1 .5l46.6-42.6c21.2 9 44 15.3 67.6 18.4V464c0 8.8 7.2 16 16 16h49.4c8.8 0 16-7.2 16-16v-64.1c23.7-3.1 46.4-9.5 67.6-18.4l46.6 42.6c6.6 6 16.7 5.8 23.1-.5l34.9-34.9c6.3-6.3 6.6-16.4 .5-23.1l-42.6-46.6c9-21.2 15.3-44 18.4-67.6h64.1c8.8 0 16-7.2 16-16v-49.4c0-8.8-7.2-16-16-16h-64.1zM256 336c-44.2 0-80-35.8-80-80s35.8-80 80-80 80 35.8 80 80-35.8 80-80 80z" transform="translate(60, 60) scale(0.8)"/>
</svg>